v 99 279 60
v 114 409 0
v 10 275 0
v 43 223 60
v 2 262 20
v 0 87 33
v 100 105 102
v 24 51 0
v 42 29 0
v 77 23 42
v 112 71 102
v 74 0 0
v 91 0 0
v 175 0 0
v 181 14 20
v 162 144 66
v 183 6 0
v 197 6 0
v 217 23 0
v 203 38 42
v 243 49 0
v 225 144 20
v 261 214 0
v 253 250 0
v 162 208 86
v 242 329 66
v 195 429 66
v 130 224 -102
vt 0.3793103448275862 0.6503496503496503
vt 0.4367816091954023 0.9533799533799534
vt 0.038314176245210725 0.6410256410256411
vt 0.16475095785440613 0.5198135198135199
vt 0.3793103448275862 0.6503496503496503
vt 0.038314176245210725 0.6410256410256411
vt 0.16475095785440613 0.5198135198135199
vt 0.038314176245210725 0.6410256410256411
vt 0.007662835249042145 0.6107226107226107
vt 0 0.20279720279720279
vt 0.16475095785440613 0.5198135198135199
vt 0.007662835249042145 0.6107226107226107
vt 0.3831417624521073 0.24475524475524477
vt 0.16475095785440613 0.5198135198135199
vt 0 0.20279720279720279
vt 0.3831417624521073 0.24475524475524477
vt 0.3793103448275862 0.6503496503496503
vt 0.16475095785440613 0.5198135198135199
vt 0.09195402298850575 0.11888111888111888
vt 0.3831417624521073 0.24475524475524477
vt 0 0.20279720279720279
vt 0.09195402298850575 0.11888111888111888
vt 0.16091954022988506 0.0675990675990676
vt 0.2950191570881226 0.053613053613053616
vt 0.2950191570881226 0.053613053613053616
vt 0.42911877394636017 0.1655011655011655
vt 0.09195402298850575 0.11888111888111888
vt 0.42911877394636017 0.1655011655011655
vt 0.3831417624521073 0.24475524475524477
vt 0.09195402298850575 0.11888111888111888
vt 0.2835249042145594 0
vt 0.2950191570881226 0.053613053613053616
vt 0.16091954022988506 0.0675990675990676
vt 0.3486590038314176 0
vt 0.2950191570881226 0.053613053613053616
vt 0.2835249042145594 0
vt 0.3486590038314176 0
vt 0.6704980842911877 0
vt 0.2950191570881226 0.053613053613053616
vt 0.6704980842911877 0
vt 0.42911877394636017 0.1655011655011655
vt 0.2950191570881226 0.053613053613053616
vt 0.6704980842911877 0
vt 0.6934865900383141 0.03263403263403263
vt 0.42911877394636017 0.1655011655011655
vt 0.6934865900383141 0.03263403263403263
vt 0.6206896551724138 0.3356643356643357
vt 0.42911877394636017 0.1655011655011655
vt 0.42911877394636017 0.1655011655011655
vt 0.6206896551724138 0.3356643356643357
vt 0.3831417624521073 0.24475524475524477
vt 0.7011494252873564 0.013986013986013986
vt 0.6934865900383141 0.03263403263403263
vt 0.6704980842911877 0
vt 0.7011494252873564 0.013986013986013986
vt 0.7547892720306514 0.013986013986013986
vt 0.6934865900383141 0.03263403263403263
vt 0.7547892720306514 0.013986013986013986
vt 0.8314176245210728 0.053613053613053616
vt 0.6934865900383141 0.03263403263403263
vt 0.8314176245210728 0.053613053613053616
vt 0.7777777777777778 0.08857808857808858
vt 0.6934865900383141 0.03263403263403263
vt 0.8314176245210728 0.053613053613053616
vt 0.9310344827586207 0.11421911421911422
vt 0.7777777777777778 0.08857808857808858
vt 0.9310344827586207 0.11421911421911422
vt 0.8620689655172413 0.3356643356643357
vt 0.7777777777777778 0.08857808857808858
vt 0.7777777777777778 0.08857808857808858
vt 0.8620689655172413 0.3356643356643357
vt 0.6206896551724138 0.3356643356643357
vt 0.7777777777777778 0.08857808857808858
vt 0.6206896551724138 0.3356643356643357
vt 0.6934865900383141 0.03263403263403263
vt 0.9310344827586207 0.11421911421911422
vt 1 0.4988344988344988
vt 0.8620689655172413 0.3356643356643357
vt 1 0.4988344988344988
vt 0.9693486590038314 0.5827505827505828
vt 0.8620689655172413 0.3356643356643357
vt 0.8620689655172413 0.3356643356643357
vt 0.9693486590038314 0.5827505827505828
vt 0.6206896551724138 0.48484848484848486
vt 0.6206896551724138 0.3356643356643357
vt 0.8620689655172413 0.3356643356643357
vt 0.6206896551724138 0.48484848484848486
vt 0.6206896551724138 0.3356643356643357
vt 0.6206896551724138 0.48484848484848486
vt 0.3831417624521073 0.24475524475524477
vt 0.9693486590038314 0.5827505827505828
vt 0.9272030651340997 0.7668997668997669
vt 0.6206896551724138 0.48484848484848486
vt 0.6206896551724138 0.48484848484848486
vt 0.9272030651340997 0.7668997668997669
vt 0.7471264367816092 1
vt 0.3831417624521073 0.24475524475524477
vt 0.6206896551724138 0.48484848484848486
vt 0.7471264367816092 1
vt 0.3831417624521073 0.24475524475524477
vt 0.7471264367816092 1
vt 0.3793103448275862 0.6503496503496503
vt 0.3793103448275862 0.6503496503496503
vt 0.7471264367816092 1
vt 0.4367816091954023 0.9533799533799534
vt 0.49808429118773945 0.5221445221445221
vt 0.7471264367816092 1
vt 0.9272030651340997 0.7668997668997669
vt 0.49808429118773945 0.5221445221445221
vt 0.9272030651340997 0.7668997668997669
vt 0.9693486590038314 0.5827505827505828
vt 0.49808429118773945 0.5221445221445221
vt 0.9693486590038314 0.5827505827505828
vt 1 0.4988344988344988
vt 0.49808429118773945 0.5221445221445221
vt 1 0.4988344988344988
vt 0.9310344827586207 0.11421911421911422
vt 0.49808429118773945 0.5221445221445221
vt 0.9310344827586207 0.11421911421911422
vt 0.8314176245210728 0.053613053613053616
vt 0.49808429118773945 0.5221445221445221
vt 0.8314176245210728 0.053613053613053616
vt 0.7547892720306514 0.013986013986013986
vt 0.49808429118773945 0.5221445221445221
vt 0.7547892720306514 0.013986013986013986
vt 0.7011494252873564 0.013986013986013986
vt 0.49808429118773945 0.5221445221445221
vt 0.7011494252873564 0.013986013986013986
vt 0.6704980842911877 0
vt 0.49808429118773945 0.5221445221445221
vt 0.6704980842911877 0
vt 0.3486590038314176 0
vt 0.49808429118773945 0.5221445221445221
vt 0.3486590038314176 0
vt 0.2835249042145594 0
vt 0.49808429118773945 0.5221445221445221
vt 0.2835249042145594 0
vt 0.16091954022988506 0.0675990675990676
vt 0.49808429118773945 0.5221445221445221
vt 0.16091954022988506 0.0675990675990676
vt 0.09195402298850575 0.11888111888111888
vt 0.49808429118773945 0.5221445221445221
vt 0.09195402298850575 0.11888111888111888
vt 0 0.20279720279720279
vt 0.49808429118773945 0.5221445221445221
vt 0 0.20279720279720279
vt 0.007662835249042145 0.6107226107226107
vt 0.49808429118773945 0.5221445221445221
vt 0.007662835249042145 0.6107226107226107
vt 0.038314176245210725 0.6410256410256411
vt 0.49808429118773945 0.5221445221445221
vt 0.038314176245210725 0.6410256410256411
vt 0.4367816091954023 0.9533799533799534
vt 0.49808429118773945 0.5221445221445221
vt 0.4367816091954023 0.9533799533799534
vt 0.7471264367816092 1
vn -0.4659451344910134 0.35347886299060177 0.8111398307708868
vn -0.5817046917630765 0.8117699530258536 -0.05147033072778536
vn -0.7531363345806467 0.604787178893624 0.25887860046809524
vn -0.39645282893578543 0.3552520957707393 0.8465347617666449
vn -0.4659451344910134 0.35347886299060177 0.8111398307708868
vn -0.7531363345806467 0.604787178893624 0.25887860046809524
vn -0.39645282893578543 0.3552520957707393 0.8465347617666449
vn -0.7531363345806467 0.604787178893624 0.25887860046809524
vn -0.9827067002038348 0.1838310929576859 0.022218700152640106
vn -0.9457794056214971 -0.19843087113295457 0.2571507442798186
vn -0.39645282893578543 0.3552520957707393 0.8465347617666449
vn -0.9827067002038348 0.1838310929576859 0.022218700152640106
vn -0.15241022413810315 -0.08342288214770816 0.9847902042122184
vn -0.39645282893578543 0.3552520957707393 0.8465347617666449
vn -0.9457794056214971 -0.19843087113295457 0.2571507442798186
vn -0.15241022413810315 -0.08342288214770816 0.9847902042122184
vn -0.4659451344910134 0.35347886299060177 0.8111398307708868
vn -0.39645282893578543 0.3552520957707393 0.8465347617666449
vn -0.8390700787593106 -0.5012170869090264 0.21152502150165026
vn -0.15241022413810315 -0.08342288214770816 0.9847902042122184
vn -0.9457794056214971 -0.19843087113295457 0.2571507442798186
vn -0.8390700787593106 -0.5012170869090264 0.21152502150165026
vn -0.6888085631230502 -0.6553649921757024 -0.30990238850144475
vn -0.3472731470655484 -0.7469157213670047 0.5670258076154886
vn -0.3472731470655484 -0.7469157213670047 0.5670258076154886
vn -0.041364873254166115 -0.47121849506797786 0.8810460130813469
vn -0.8390700787593106 -0.5012170869090264 0.21152502150165026
vn -0.041364873254166115 -0.47121849506797786 0.8810460130813469
vn -0.15241022413810315 -0.08342288214770816 0.9847902042122184
vn -0.8390700787593106 -0.5012170869090264 0.21152502150165026
vn -0.3462269572926547 -0.8721775208425288 -0.3455911835982663
vn -0.3472731470655484 -0.7469157213670047 0.5670258076154886
vn -0.6888085631230502 -0.6553649921757024 -0.30990238850144475
vn 0 -0.9488441598353895 -0.3157447708930013
vn -0.3472731470655484 -0.7469157213670047 0.5670258076154886
vn -0.3462269572926547 -0.8721775208425288 -0.3455911835982663
vn 0 -0.9488441598353895 -0.3157447708930013
vn 0.2185056279597019 -0.9746231658722371 0.04863100960410276
vn -0.3472731470655484 -0.7469157213670047 0.5670258076154886
vn 0.2185056279597019 -0.9746231658722371 0.04863100960410276
vn -0.041364873254166115 -0.47121849506797786 0.8810460130813469
vn -0.3472731470655484 -0.7469157213670047 0.5670258076154886
vn 0.2185056279597019 -0.9746231658722371 0.04863100960410276
vn 0.2895885819015405 -0.7159048857904646 0.6353098832330538
vn -0.041364873254166115 -0.47121849506797786 0.8810460130813469
vn 0.2895885819015405 -0.7159048857904646 0.6353098832330538
vn 0.4521753529716164 -0.1453255624871194 0.8800101880392047
vn -0.041364873254166115 -0.47121849506797786 0.8810460130813469
vn -0.041364873254166115 -0.47121849506797786 0.8810460130813469
vn 0.4521753529716164 -0.1453255624871194 0.8800101880392047
vn -0.15241022413810315 -0.08342288214770816 0.9847902042122184
vn 0.29482387616274347 -0.8752386303870776 -0.383453024401331
vn 0.2895885819015405 -0.7159048857904646 0.6353098832330538
vn 0.2185056279597019 -0.9746231658722371 0.04863100960410276
vn 0.29482387616274347 -0.8752386303870776 -0.383453024401331
vn 0.30919912812446704 -0.8973493351607474 -0.3148969194095649
vn 0.2895885819015405 -0.7159048857904646 0.6353098832330538
vn 0.30919912812446704 -0.8973493351607474 -0.3148969194095649
vn 0.6293052453830915 -0.7725678297797202 -0.0843436809890365
vn 0.2895885819015405 -0.7159048857904646 0.6353098832330538
vn 0.6293052453830915 -0.7725678297797202 -0.0843436809890365
vn 0.47239516765264333 -0.4233293808564613 0.7730685874371797
vn 0.2895885819015405 -0.7159048857904646 0.6353098832330538
vn 0.6293052453830915 -0.7725678297797202 -0.0843436809890365
vn 0.9313130691718633 -0.3543253769352108 0.08431781810154139
vn 0.47239516765264333 -0.4233293808564613 0.7730685874371797
vn 0.9313130691718633 -0.3543253769352108 0.08431781810154139
vn 0.5958469215511669 -0.04051609421250905 0.802075365653229
vn 0.47239516765264333 -0.4233293808564613 0.7730685874371797
vn 0.47239516765264333 -0.4233293808564613 0.7730685874371797
vn 0.5958469215511669 -0.04051609421250905 0.802075365653229
vn 0.4521753529716164 -0.1453255624871194 0.8800101880392047
vn 0.47239516765264333 -0.4233293808564613 0.7730685874371797
vn 0.4521753529716164 -0.1453255624871194 0.8800101880392047
vn 0.2895885819015405 -0.7159048857904646 0.6353098832330538
vn 0.9313130691718633 -0.3543253769352108 0.08431781810154139
vn 0.9957862951663837 0.04034011238852794 0.0823549008334588
vn 0.5958469215511669 -0.04051609421250905 0.802075365653229
vn 0.9957862951663837 0.04034011238852794 0.0823549008334588
vn 0.9549579016467259 0.13574581572154829 0.26387208946111307
vn 0.5958469215511669 -0.04051609421250905 0.802075365653229
vn 0.5958469215511669 -0.04051609421250905 0.802075365653229
vn 0.9549579016467259 0.13574581572154829 0.26387208946111307
vn 0.5074411026061258 -0.1376919955916537 0.8506141556169089
vn 0.4521753529716164 -0.1453255624871194 0.8800101880392047
vn 0.5958469215511669 -0.04051609421250905 0.802075365653229
vn 0.5074411026061258 -0.1376919955916537 0.8506141556169089
vn 0.4521753529716164 -0.1453255624871194 0.8800101880392047
vn 0.5074411026061258 -0.1376919955916537 0.8506141556169089
vn -0.15241022413810315 -0.08342288214770816 0.9847902042122184
vn 0.9549579016467259 0.13574581572154829 0.26387208946111307
vn 0.9471331551484493 0.2989202701139204 0.11655667519951161
vn 0.5074411026061258 -0.1376919955916537 0.8506141556169089
vn 0.5074411026061258 -0.1376919955916537 0.8506141556169089
vn 0.9471331551484493 0.2989202701139204 0.11655667519951161
vn 0.16350806560022807 0.5676743614927356 0.806852484527058
vn -0.15241022413810315 -0.08342288214770816 0.9847902042122184
vn 0.5074411026061258 -0.1376919955916537 0.8506141556169089
vn 0.16350806560022807 0.5676743614927356 0.806852484527058
vn -0.15241022413810315 -0.08342288214770816 0.9847902042122184
vn 0.16350806560022807 0.5676743614927356 0.806852484527058
vn -0.4659451344910134 0.35347886299060177 0.8111398307708868
vn -0.4659451344910134 0.35347886299060177 0.8111398307708868
vn 0.16350806560022807 0.5676743614927356 0.806852484527058
vn -0.5817046917630765 0.8117699530258536 -0.05147033072778536
vn 0.028817209116931426 -0.10740345518378416 -0.9937977994910714
vn 0.16350806560022807 0.5676743614927356 0.806852484527058
vn 0.9471331551484493 0.2989202701139204 0.11655667519951161
vn 0.028817209116931426 -0.10740345518378416 -0.9937977994910714
vn 0.9471331551484493 0.2989202701139204 0.11655667519951161
vn 0.9549579016467259 0.13574581572154829 0.26387208946111307
vn 0.028817209116931426 -0.10740345518378416 -0.9937977994910714
vn 0.9549579016467259 0.13574581572154829 0.26387208946111307
vn 0.9957862951663837 0.04034011238852794 0.0823549008334588
vn 0.028817209116931426 -0.10740345518378416 -0.9937977994910714
vn 0.9957862951663837 0.04034011238852794 0.0823549008334588
vn 0.9313130691718633 -0.3543253769352108 0.08431781810154139
vn 0.028817209116931426 -0.10740345518378416 -0.9937977994910714
vn 0.9313130691718633 -0.3543253769352108 0.08431781810154139
vn 0.6293052453830915 -0.7725678297797202 -0.0843436809890365
vn 0.028817209116931426 -0.10740345518378416 -0.9937977994910714
vn 0.6293052453830915 -0.7725678297797202 -0.0843436809890365
vn 0.30919912812446704 -0.8973493351607474 -0.3148969194095649
vn 0.028817209116931426 -0.10740345518378416 -0.9937977994910714
vn 0.30919912812446704 -0.8973493351607474 -0.3148969194095649
vn 0.29482387616274347 -0.8752386303870776 -0.383453024401331
vn 0.028817209116931426 -0.10740345518378416 -0.9937977994910714
vn 0.29482387616274347 -0.8752386303870776 -0.383453024401331
vn 0.2185056279597019 -0.9746231658722371 0.04863100960410276
vn 0.028817209116931426 -0.10740345518378416 -0.9937977994910714
vn 0.2185056279597019 -0.9746231658722371 0.04863100960410276
vn 0 -0.9488441598353895 -0.3157447708930013
vn 0.028817209116931426 -0.10740345518378416 -0.9937977994910714
vn 0 -0.9488441598353895 -0.3157447708930013
vn -0.3462269572926547 -0.8721775208425288 -0.3455911835982663
vn 0.028817209116931426 -0.10740345518378416 -0.9937977994910714
vn -0.3462269572926547 -0.8721775208425288 -0.3455911835982663
vn -0.6888085631230502 -0.6553649921757024 -0.30990238850144475
vn 0.028817209116931426 -0.10740345518378416 -0.9937977994910714
vn -0.6888085631230502 -0.6553649921757024 -0.30990238850144475
vn -0.8390700787593106 -0.5012170869090264 0.21152502150165026
vn 0.028817209116931426 -0.10740345518378416 -0.9937977994910714
vn -0.8390700787593106 -0.5012170869090264 0.21152502150165026
vn -0.9457794056214971 -0.19843087113295457 0.2571507442798186
vn 0.028817209116931426 -0.10740345518378416 -0.9937977994910714
vn -0.9457794056214971 -0.19843087113295457 0.2571507442798186
vn -0.9827067002038348 0.1838310929576859 0.022218700152640106
vn 0.028817209116931426 -0.10740345518378416 -0.9937977994910714
vn -0.9827067002038348 0.1838310929576859 0.022218700152640106
vn -0.7531363345806467 0.604787178893624 0.25887860046809524
vn 0.028817209116931426 -0.10740345518378416 -0.9937977994910714
vn -0.7531363345806467 0.604787178893624 0.25887860046809524
vn -0.5817046917630765 0.8117699530258536 -0.05147033072778536
vn 0.028817209116931426 -0.10740345518378416 -0.9937977994910714
vn -0.5817046917630765 0.8117699530258536 -0.05147033072778536
vn 0.16350806560022807 0.5676743614927356 0.806852484527058
f 1/1/1 2/2/2 3/3/3
f 4/4/4 1/5/5 3/6/6
f 4/7/7 3/8/8 5/9/9
f 6/10/10 4/11/11 5/12/12
f 7/13/13 4/14/14 6/15/15
f 7/16/16 1/17/17 4/18/18
f 8/19/19 7/20/20 6/21/21
f 8/22/22 9/23/23 10/24/24
f 10/25/25 11/26/26 8/27/27
f 11/28/28 7/29/29 8/30/30
f 12/31/31 10/32/32 9/33/33
f 13/34/34 10/35/35 12/36/36
f 13/37/37 14/38/38 10/39/39
f 14/40/40 11/41/41 10/42/42
f 14/43/43 15/44/44 11/45/45
f 15/46/46 16/47/47 11/48/48
f 11/49/49 16/50/50 7/51/51
f 17/52/52 15/53/53 14/54/54
f 17/55/55 18/56/56 15/57/57
f 18/58/58 19/59/59 15/60/60
f 19/61/61 20/62/62 15/63/63
f 19/64/64 21/65/65 20/66/66
f 21/67/67 22/68/68 20/69/69
f 20/70/70 22/71/71 16/72/72
f 20/73/73 16/74/74 15/75/75
f 21/76/76 23/77/77 22/78/78
f 23/79/79 24/80/80 22/81/81
f 22/82/82 24/83/83 25/84/84
f 16/85/85 22/86/86 25/87/87
f 16/88/88 25/89/89 7/90/90
f 24/91/91 26/92/92 25/93/93
f 25/94/94 26/95/95 27/96/96
f 7/97/97 25/98/98 27/99/99
f 7/100/100 27/101/101 1/102/102
f 1/103/103 27/104/104 2/105/105
f 28/106/106 27/107/107 26/108/108
f 28/109/109 26/110/110 24/111/111
f 28/112/112 24/113/113 23/114/114
f 28/115/115 23/116/116 21/117/117
f 28/118/118 21/119/119 19/120/120
f 28/121/121 19/122/122 18/123/123
f 28/124/124 18/125/125 17/126/126
f 28/127/127 17/128/128 14/129/129
f 28/130/130 14/131/131 13/132/132
f 28/133/133 13/134/134 12/135/135
f 28/136/136 12/137/137 9/138/138
f 28/139/139 9/140/140 8/141/141
f 28/142/142 8/143/143 6/144/144
f 28/145/145 6/146/146 5/147/147
f 28/148/148 5/149/149 3/150/150
f 28/151/151 3/152/152 2/153/153
f 28/154/154 2/155/155 27/156/156
